<svg width="45" height="36" viewBox="0 0 45 36" fill="none" xmlns="http://www.w3.org/2000/svg">
  <path d="M38.5299 0.109985H6.68994C3.23994 0.109985 0.439941 2.90999 0.439941 6.35999V28.77C0.439941 32.22 3.23994 35.02 6.68994 35.02H38.5299C41.9799 35.02 44.7699 32.22 44.7699 28.77V6.35999C44.7699 2.90999 41.9799 0.109985 38.5299 0.109985Z" fill="#EE655C"/>
  <path d="M10.2399 8.10003L11.4799 10.61L14.2499 11.01C14.7099 11.08 14.8999 11.65 14.5599 11.97L12.5499 13.93L13.0199 16.69C13.0999 17.15 12.6199 17.5 12.1999 17.29L9.71991 15.99L7.23992 17.29C6.82992 17.51 6.33991 17.16 6.41991 16.69L6.88991 13.93L4.87992 11.97C4.53992 11.64 4.72991 11.07 5.18991 11.01L7.95992 10.61L9.19991 8.10003C9.40991 7.68003 10.0099 7.68003 10.2099 8.10003H10.2399Z" fill="#FFEE00"/>
  <path d="M20.6299 18.76L20.2899 19.77L20.9299 20.63C21.0399 20.77 20.9299 20.98 20.7499 20.97H19.6799L19.0599 21.83C18.9599 21.98 18.7299 21.94 18.6799 21.77L18.3599 20.75L17.3399 20.43C17.1699 20.38 17.1299 20.15 17.2799 20.05L18.1499 19.43V18.36C18.1299 18.18 18.3399 18.08 18.4799 18.18L19.3399 18.82L20.3499 18.48C20.5199 18.42 20.6799 18.58 20.6199 18.75L20.6299 18.76Z" fill="#FFEE00"/>
  <path d="M22.83 13.13L23.3 14.09L24.36 14.24C24.54 14.27 24.61 14.48 24.48 14.61L23.71 15.36L23.89 16.41C23.92 16.59 23.74 16.72 23.58 16.64L22.63 16.14L21.68 16.64C21.52 16.72 21.34 16.59 21.37 16.41L21.55 15.36L20.78 14.61C20.65 14.49 20.72 14.27 20.9 14.24L21.96 14.09L22.43 13.13C22.51 12.97 22.74 12.97 22.82 13.13H22.83Z" fill="#FFEE00"/>
  <path d="M23.68 8.06004L23.13 8.98004L23.57 9.95004C23.64 10.11 23.5 10.29 23.33 10.25L22.29 10.01L21.5 10.73C21.37 10.85 21.16 10.77 21.14 10.59L21.05 9.52004L20.12 8.99004C19.96 8.90004 19.98 8.67004 20.14 8.60004L21.12 8.18004L21.34 7.13004C21.38 6.96004 21.6 6.90004 21.71 7.03004L22.41 7.84004L23.47 7.72004C23.65 7.70004 23.77 7.89004 23.68 8.05004V8.06004Z" fill="#FFEE00"/>
  <path d="M18.5499 3.15L18.3599 4.2L19.1199 4.95C19.2499 5.08 19.1699 5.29 18.9999 5.32L17.9399 5.46L17.4599 6.41C17.3799 6.57 17.1499 6.57 17.0699 6.41L16.5999 5.45L15.5399 5.29C15.3599 5.26 15.2899 5.05 15.4199 4.92L16.1899 4.18L16.0199 3.12C15.9899 2.94 16.1799 2.81 16.3299 2.9L17.2699 3.41L18.2199 2.92C18.3799 2.84 18.5599 2.97 18.5299 3.15H18.5499Z" fill="#FFEE00"/>
</svg>
