<svg width="45" height="36" viewBox="0 0 45 36" fill="none" xmlns="http://www.w3.org/2000/svg">
  <path
    d="M44.4101 24.6V28.77C44.4101 32.22 41.6201 35.02 38.1701 35.02H6.33008C2.88008 35.02 0.0800781 32.22 0.0800781 28.77V24.6H44.4101Z"
    fill="#EE655C" />
  <path
    d="M44.4101 6.35999V10.52H0.0800781V6.35999C0.0800781 2.90999 2.88008 0.109985 6.33008 0.109985H38.1701C41.6201 0.109985 44.4101 2.90999 44.4101 6.35999Z"
    fill="#EE655C" />
  <path d="M44.4101 10.52H0.0800781V24.6H44.4101V10.52Z" fill="#FFEE00" />
  <path d="M6.13016 13.5499H3.16016V21.0799H6.13016V13.5499Z" fill="white" />
  <path
    d="M15.01 19.92C15.01 20.13 14.98 20.33 14.92 20.5C14.89 20.59 14.85 20.68 14.8 20.77C14.46 21.37 13.78 21.73 13.04 22.05C11.9 22.52 10.63 22.52 9.49002 22.05C8.75002 21.73 8.06002 21.37 7.73002 20.77C7.68002 20.68 7.64002 20.59 7.61002 20.5C7.55002 20.33 7.52002 20.13 7.52002 19.92V13.28C7.52002 12.9 7.83002 12.58 8.22002 12.58H14.31C14.7 12.58 15.01 12.9 15.01 13.28V19.92Z"
    fill="white" />
  <path d="M19.3701 13.5499H16.4001V21.0799H19.3701V13.5499Z" fill="white" />
  <path
    d="M15.01 13.28V19.92C15.01 20.13 14.98 20.33 14.92 20.5C14.89 20.59 14.85 20.68 14.8 20.77C14.46 21.37 13.78 21.73 13.04 22.05C11.9 22.52 10.63 22.52 9.49002 22.05C8.75002 21.73 8.06002 21.37 7.73002 20.77C7.68002 20.68 7.64002 20.59 7.61002 20.5C7.55002 20.33 7.52002 20.13 7.52002 19.92V13.28C7.52002 12.9 7.83002 12.58 8.22002 12.58H14.31C14.7 12.58 15.01 12.9 15.01 13.28Z"
    fill="#EE655C" />
  <path d="M6.13016 13.5499H3.16016V21.0799H6.13016V13.5499Z" fill="#FFEAD3" />
  <path d="M19.3701 13.5499H16.4001V21.0799H19.3701V13.5499Z" fill="#FFEAD3" />
</svg>